<svg width="24" height="24" viewBox="0 0 24 24" fill="none" xmlns="http://www.w3.org/2000/svg">
<path d="M14.4585 5.69537C15.539 4.37584 15.2976 2.93443 15.1781 2.8149C15.0585 2.69537 13.4976 2.93443 12.4171 4.37584C11.4562 5.69537 11.4562 7.13677 11.5781 7.25631C11.7 7.37584 13.2585 7.25631 14.4585 5.69537ZM17.1 12.4172C16.9804 10.4977 18.7804 9.29771 19.139 9.05631V8.93677C19.139 8.93677 17.5781 7.01724 15.3 7.13677C13.8609 7.25631 13.139 7.97584 12.1804 7.97584C10.9804 7.97584 9.89995 7.13677 8.58042 7.13677C7.49995 7.13677 4.38042 8.09771 4.14136 12.1758C3.9023 16.2563 6.78042 20.0954 7.86089 20.8149C8.94136 21.5344 9.66089 21.2954 10.8609 20.6954C11.4609 20.3344 13.3804 20.2149 14.4609 20.9344C15.7804 21.4149 17.7 21.054 19.8609 16.254C19.6195 16.2563 17.2195 15.6563 17.1 12.4172Z" fill="#1E1E1E"/>
</svg>
