<svg width="24" height="24" viewBox="0 0 24 24" fill="none" xmlns="http://www.w3.org/2000/svg">
<g clip-path="url(#clip0_381_338)">
<path d="M12 6.3125C8.86367 6.3125 6.3125 8.86367 6.3125 12C6.3125 15.1363 8.86367 17.6875 12 17.6875C15.1363 17.6875 17.6875 15.1363 17.6875 12C17.6875 8.86367 15.1363 6.3125 12 6.3125ZM15.7611 8.93477C16.4379 9.76191 16.848 10.8146 16.8576 11.9617C16.6977 11.9275 15.0912 11.6021 13.4752 11.8059C13.441 11.7225 13.4068 11.6391 13.3713 11.5557C13.2701 11.3191 13.1621 11.0826 13.0486 10.8516C14.8438 10.1174 15.6586 9.07422 15.7611 8.93477ZM12 7.14922C13.2346 7.14922 14.3625 7.6127 15.2197 8.37285C15.1322 8.49727 14.4008 9.48027 12.674 10.1283C11.8783 8.66543 10.9965 7.46504 10.8611 7.28457C11.2344 7.19434 11.6158 7.14922 12 7.14922ZM9.93418 7.61133C10.0627 7.78633 10.9309 8.99082 11.7348 10.4209C9.4625 11.0238 7.46094 11.0156 7.24355 11.0129C7.55938 9.50488 8.5752 8.25254 9.93418 7.61133ZM7.14238 12.0068C7.14238 11.9576 7.14375 11.907 7.14512 11.8578C7.35703 11.8619 9.71133 11.892 12.1381 11.166C12.2775 11.4381 12.4102 11.7143 12.5318 11.9904C12.4676 12.0082 12.4033 12.0273 12.3404 12.0479C9.83438 12.86 8.50137 15.068 8.39062 15.2553C7.61543 14.3939 7.14238 13.2551 7.14238 12.0068ZM12 16.8645C10.8762 16.8645 9.84121 16.4816 9.01816 15.8391C9.10566 15.66 10.0887 13.7609 12.8285 12.8053L12.86 12.7943C13.5422 14.5662 13.8238 16.0523 13.8963 16.4789C13.3139 16.7277 12.6727 16.8658 12 16.8645ZM14.7139 16.0346C14.6646 15.7393 14.4062 14.3174 13.7705 12.5715C15.2936 12.3281 16.6307 12.7273 16.7961 12.7793C16.5801 14.1301 15.8049 15.2977 14.7139 16.0346Z" fill="#828282"/>
<path d="M11.9766 0C5.37207 0 0 5.38256 0 12C0 18.6174 5.37207 24 11.9766 24C18.5811 24 23.9532 18.6174 23.9532 12C23.9532 5.38256 18.5811 0 11.9766 0ZM11.9766 23.2007C5.81277 23.2007 0.797743 18.1759 0.797743 12C0.797743 5.82412 5.81277 0.799302 11.9766 0.799302C18.1404 0.799302 23.1555 5.82412 23.1555 12C23.1555 18.1759 18.1404 23.2007 11.9766 23.2007Z" fill="#828282"/>
</g>
<defs>
<clipPath id="clip0_381_338">
<rect width="24" height="24" fill="white"/>
</clipPath>
</defs>
</svg>
