<svg width="24" height="24" viewBox="0 0 24 24" fill="none" xmlns="http://www.w3.org/2000/svg">
<g clip-path="url(#clip0_381_330)">
<path d="M14.75 6.09375V8.15625H13.5234C13.0755 8.15625 12.7734 8.25 12.6172 8.4375C12.4609 8.625 12.3828 8.90625 12.3828 9.28125V10.7578H14.6719L14.3672 13.0703H12.3828V19H9.99219V13.0703H8V10.7578H9.99219V9.05469C9.99219 8.08594 10.263 7.33464 10.8047 6.80078C11.3464 6.26693 12.0677 6 12.9688 6C13.7344 6 14.3281 6.03125 14.75 6.09375Z" fill="#828282"/>
<path d="M11.9766 0C5.37207 0 0 5.38256 0 12C0 18.6174 5.37207 24 11.9766 24C18.5811 24 23.9532 18.6174 23.9532 12C23.9532 5.38256 18.5811 0 11.9766 0ZM11.9766 23.2007C5.81277 23.2007 0.797743 18.1759 0.797743 12C0.797743 5.82412 5.81277 0.799302 11.9766 0.799302C18.1404 0.799302 23.1555 5.82412 23.1555 12C23.1555 18.1759 18.1404 23.2007 11.9766 23.2007Z" fill="#828282"/>
</g>
<defs>
<clipPath id="clip0_381_330">
<rect width="24" height="24" fill="white"/>
</clipPath>
</defs>
</svg>
