<svg width="18" height="18" viewBox="0 0 18 18" fill="none" xmlns="http://www.w3.org/2000/svg">
<g clip-path="url(#clip0_85_1057)">
<path d="M3.76353 8.99994C3.76353 8.42844 3.86103 7.88019 4.03353 7.36644L1.00503 5.10144C0.396553 6.3108 0.0805714 7.64614 0.0825286 8.99994C0.0825286 10.4009 0.414029 11.7224 1.00353 12.8954L4.03053 10.6267C3.85403 10.1025 3.76385 9.55307 3.76353 8.99994Z" fill="#FBBC05"/>
<path d="M9.08251 3.8002C10.35 3.8002 11.4953 4.2397 12.3953 4.9597L15.0135 2.39995C13.4183 1.0402 11.373 0.200195 9.08251 0.200195C5.52601 0.200195 2.469 2.19145 1.005 5.10145L4.035 7.36645C4.7325 5.29194 6.72151 3.8002 9.08251 3.8002Z" fill="#EA4335"/>
<path d="M9.08251 14.1998C6.72076 14.1998 4.73175 12.708 4.0335 10.6335L1.005 12.8985C2.46825 15.8085 5.52526 17.7998 9.08251 17.7998C11.277 17.7998 13.3725 17.037 14.946 15.6068L12.0705 13.4303C11.2598 13.9305 10.2383 14.1998 9.08176 14.1998" fill="#34A853"/>
<path d="M17.673 9.00002C17.673 8.48027 17.5905 7.92002 17.4683 7.40027H9.08179V10.8H13.9088C13.668 11.9595 13.011 12.8505 12.0713 13.4303L14.946 15.6068C16.5983 14.1053 17.673 11.8688 17.673 9.00002Z" fill="#4285F4"/>
</g>
<defs>
<clipPath id="clip0_85_1057">
<rect width="18" height="18" fill="white"/>
</clipPath>
</defs>
</svg>
