<svg width="24" height="24" viewBox="0 0 24 24" fill="none" xmlns="http://www.w3.org/2000/svg">
<g clip-path="url(#clip0_381_309)">
<path d="M12.0247 8.42121C10.0296 8.42121 8.41943 10.0314 8.41943 12.0265C8.41943 14.0216 10.0296 15.6318 12.0247 15.6318C14.0198 15.6318 15.63 14.0216 15.63 12.0265C15.63 10.0314 14.0198 8.42121 12.0247 8.42121ZM12.0247 14.3696C10.7345 14.3696 9.68154 13.3167 9.68154 12.0265C9.68154 10.7362 10.7345 9.68332 12.0247 9.68332C13.3149 9.68332 14.3679 10.7362 14.3679 12.0265C14.3679 13.3167 13.3149 14.3696 12.0247 14.3696ZM15.7776 7.43332C15.3118 7.43332 14.9356 7.80949 14.9356 8.27531C14.9356 8.74113 15.3118 9.1173 15.7776 9.1173C16.2435 9.1173 16.6196 8.74289 16.6196 8.27531C16.6179 7.80773 16.2435 7.43332 15.7776 7.43332Z" fill="#828282"/>
<path d="M19.0525 12.0265C19.0525 11.0562 19.0613 10.0947 19.0068 9.12611C18.9523 8.00111 18.6956 7.00267 17.873 6.18001C17.0486 5.3556 16.0519 5.10072 14.9269 5.04623C13.9566 4.99173 12.9951 5.00052 12.0265 5.00052C11.0562 5.00052 10.0947 4.99173 9.12611 5.04623C8.00111 5.10072 7.00267 5.35736 6.18002 6.18001C5.3556 7.00443 5.10072 8.00111 5.04623 9.12611C4.99173 10.0964 5.00052 11.0579 5.00052 12.0265C5.00052 12.9951 4.99173 13.9583 5.04623 14.9269C5.10072 16.0519 5.35736 17.0503 6.18002 17.873C7.00443 18.6974 8.00111 18.9523 9.12611 19.0068C10.0964 19.0613 11.0579 19.0525 12.0265 19.0525C12.9968 19.0525 13.9583 19.0613 14.9269 19.0068C16.0519 18.9523 17.0503 18.6956 17.873 17.873C18.6974 17.0486 18.9523 16.0519 19.0068 14.9269C19.063 13.9583 19.0525 12.9968 19.0525 12.0265ZM17.5056 16.1714C17.3773 16.4913 17.2226 16.7304 16.9747 16.9765C16.7269 17.2243 16.4896 17.379 16.1697 17.5074C15.2451 17.8747 13.0495 17.7921 12.0247 17.7921C10.9999 17.7921 8.80267 17.8747 7.87806 17.5091C7.55814 17.3808 7.31908 17.2261 7.07298 16.9783C6.82513 16.7304 6.67045 16.4931 6.54212 16.1732C6.1765 15.2468 6.25912 13.0513 6.25912 12.0265C6.25912 11.0017 6.1765 8.80443 6.54212 7.87982C6.67045 7.5599 6.82513 7.32083 7.07298 7.07474C7.32084 6.82865 7.55814 6.6722 7.87806 6.54388C8.80267 6.17826 10.9999 6.26087 12.0247 6.26087C13.0495 6.26087 15.2468 6.17826 16.1714 6.54388C16.4913 6.6722 16.7304 6.82689 16.9765 7.07474C17.2244 7.32259 17.379 7.5599 17.5074 7.87982C17.873 8.80443 17.7904 11.0017 17.7904 12.0265C17.7904 13.0513 17.873 15.2468 17.5056 16.1714Z" fill="#828282"/>
<path d="M11.9766 0C5.37207 0 0 5.38256 0 12C0 18.6174 5.37207 24 11.9766 24C18.5811 24 23.9532 18.6174 23.9532 12C23.9532 5.38256 18.5811 0 11.9766 0ZM11.9766 23.2007C5.81277 23.2007 0.797743 18.1759 0.797743 12C0.797743 5.82412 5.81277 0.799302 11.9766 0.799302C18.1404 0.799302 23.1555 5.82412 23.1555 12C23.1555 18.1759 18.1404 23.2007 11.9766 23.2007Z" fill="#828282"/>
</g>
<defs>
<clipPath id="clip0_381_309">
<rect width="24" height="24" fill="white"/>
</clipPath>
</defs>
</svg>
