<svg width="24" height="24" viewBox="0 0 24 24" fill="none" xmlns="http://www.w3.org/2000/svg">
<g clip-path="url(#clip0_381_302)">
<path d="M14.6022 8.97043C14.0958 8.97043 13.7208 9.09841 13.4273 9.26007C13.3802 9.09242 13.2256 8.96968 13.0434 9.00636H10.8145C10.5941 8.96968 10.4156 9.14855 10.4836 9.38056V17.6131C10.4156 17.8226 10.5941 18.0022 10.8145 17.9873H13.0434C13.2637 18.0022 13.4422 17.8226 13.4422 17.6018L13.4415 12.6264C13.4407 12.6242 13.4325 12.3862 13.5827 12.2223C13.7029 12.092 13.9098 12.0254 14.1959 12.0254C14.6725 12.0254 14.8846 12.2208 14.9638 12.6578V17.6018C14.8853 17.8226 15.0639 18.0022 15.2842 17.9873H17.6334C17.8537 18.0022 18.0322 17.8226 17.9531 17.6018V12.4917C18.0315 9.89322 16.1843 8.97043 14.6022 8.97043ZM17.2337 17.2389H15.6831V12.6578C15.6831 11.774 15.1132 11.2261 14.1966 11.2261C13.6783 11.2261 13.2749 11.3788 12.997 11.6797C12.6109 12.0988 12.6407 12.6302 12.7237 12.7484V17.2389H11.2133V9.76973H12.6445V10.0212C12.6439 10.0961 12.6644 10.1697 12.7037 10.2334C12.7429 10.2972 12.7994 10.3485 12.8665 10.3816C12.9336 10.4146 13.0086 10.4281 13.083 10.4203C13.1573 10.4126 13.228 10.384 13.2869 10.3378L13.3914 10.2569C13.6939 10.0182 14.0069 9.77048 14.603 9.77048C15.22 9.77048 17.2345 9.96731 17.2345 12.4924V17.2389H17.2337ZM8.24195 5.23886C7.40388 5.23886 6.72266 5.92141 6.72266 6.76113C6.72266 7.60084 7.40388 8.28339 8.24195 8.28339C9.08003 8.28339 9.76125 7.60084 9.76125 6.76113C9.76125 5.92141 9.08003 5.23886 8.24195 5.23886ZM8.24195 7.48409C7.84458 7.48409 7.5204 7.15928 7.5204 6.76113C7.5204 6.36297 7.84458 6.03816 8.24195 6.03816C8.63933 6.03816 8.96351 6.36297 8.96351 6.76113C8.96351 7.15928 8.63933 7.48409 8.24195 7.48409ZM9.3086 8.96968H7.09165C6.8713 8.96968 6.69278 9.14855 6.74805 9.38056V17.6131C6.69278 17.8226 6.8713 18.0022 7.09165 17.9873H9.3086C9.52895 18.0022 9.70747 17.8226 9.70747 17.6018V9.36933C9.70747 9.26334 9.66545 9.16169 9.59064 9.08674C9.51584 9.01179 9.41439 8.96968 9.3086 8.96968ZM8.98891 17.2389H7.49052V9.76973H8.98891V17.2389Z" fill="#828282"/>
<path d="M11.9766 0C5.37207 0 0 5.38256 0 12C0 18.6174 5.37207 24 11.9766 24C18.5811 24 23.9532 18.6174 23.9532 12C23.9532 5.38256 18.5811 0 11.9766 0ZM11.9766 23.2007C5.81277 23.2007 0.797743 18.1759 0.797743 12C0.797743 5.82412 5.81277 0.799302 11.9766 0.799302C18.1404 0.799302 23.1555 5.82412 23.1555 12C23.1555 18.1759 18.1404 23.2007 11.9766 23.2007Z" fill="#828282"/>
</g>
<defs>
<clipPath id="clip0_381_302">
<rect width="24" height="24" fill="white"/>
</clipPath>
</defs>
</svg>
