<svg width="24" height="24" viewBox="0 0 24 24" fill="none" xmlns="http://www.w3.org/2000/svg">
<g clip-path="url(#clip0_381_321)">
<path d="M19 11.9569C19 11.9231 19 11.8846 18.9984 11.84C18.9969 11.7153 18.9938 11.5753 18.9906 11.426C18.9781 10.9966 18.9563 10.5688 18.9219 10.1656C18.875 9.61003 18.8062 9.14681 18.7125 8.79901C18.5125 8.06186 17.925 7.48169 17.1766 7.28316C16.7344 7.1662 15.8687 7.09387 14.65 7.04925C14.0703 7.0277 13.45 7.01385 12.8297 7.00616C12.6125 7.00308 12.4109 7.00154 12.2297 7H11.7703C11.5891 7.00154 11.3875 7.00308 11.1703 7.00616C10.55 7.01385 9.92969 7.0277 9.35 7.04925C8.13125 7.09541 7.26406 7.16774 6.82344 7.28316C6.07656 7.48015 5.4875 8.06033 5.2875 8.79901C5.19219 9.14681 5.125 9.61003 5.07812 10.1656C5.04375 10.5688 5.02187 10.9966 5.00937 11.426C5.00469 11.5753 5.00312 11.7153 5.00156 11.84C5.00156 11.8846 5 11.9231 5 11.9569V12.0431C5 12.0769 5 12.1154 5.00156 12.16C5.00312 12.2847 5.00625 12.4247 5.00937 12.574C5.02187 13.0034 5.04375 13.4312 5.07812 13.8344C5.125 14.39 5.19375 14.8532 5.2875 15.201C5.4875 15.9381 6.075 16.5199 6.82344 16.7168C7.26406 16.8338 8.13125 16.9061 9.35 16.9508C9.92969 16.9723 10.55 16.9861 11.1703 16.9938C11.3875 16.9969 11.5891 16.9985 11.7703 17H12.2297C12.4109 16.9985 12.6125 16.9969 12.8297 16.9938C13.45 16.9861 14.0703 16.9723 14.65 16.9508C15.8687 16.9046 16.7359 16.8323 17.1766 16.7168C17.925 16.5199 18.5125 15.9397 18.7125 15.201C18.8078 14.8532 18.875 14.39 18.9219 13.8344C18.9563 13.4312 18.9781 13.0034 18.9906 12.574C18.9953 12.4247 18.9969 12.2847 18.9984 12.16C18.9984 12.1154 19 12.0769 19 12.0431V12V11.9569ZM17.875 12.0369C17.875 12.0693 17.875 12.1046 17.8734 12.1462C17.8719 12.2662 17.8688 12.3986 17.8656 12.5417C17.8547 12.9511 17.8328 13.3604 17.8 13.7405C17.7578 14.2361 17.6984 14.6424 17.625 14.9147C17.5281 15.2702 17.2437 15.5519 16.8844 15.6457C16.5562 15.7319 15.7297 15.8012 14.6062 15.8427C14.0375 15.8643 13.425 15.8781 12.8141 15.8858C12.6 15.8889 12.4016 15.8904 12.2234 15.8904H11.7766C11.5984 15.8889 11.4 15.8873 11.1859 15.8858C10.575 15.8781 9.96406 15.8643 9.39375 15.8427C8.27031 15.7996 7.44219 15.7319 7.11562 15.6457C6.75625 15.5503 6.47187 15.2702 6.375 14.9147C6.30156 14.6424 6.24219 14.2361 6.2 13.7405C6.16719 13.3604 6.14688 12.9511 6.13438 12.5417C6.12969 12.3986 6.12813 12.2647 6.12656 12.1462C6.12656 12.1046 6.125 12.0677 6.125 12.0369V11.9908V11.9631C6.125 11.9307 6.125 11.8954 6.12656 11.8538C6.12813 11.7338 6.13125 11.6014 6.13438 11.4583C6.14531 11.0489 6.16719 10.6396 6.2 10.2595C6.24219 9.76393 6.30156 9.35765 6.375 9.08526C6.47187 8.72976 6.75625 8.44814 7.11562 8.35426C7.44375 8.26808 8.27031 8.19883 9.39375 8.15728C9.9625 8.13573 10.575 8.12188 11.1859 8.11419C11.4 8.11111 11.5984 8.10957 11.7766 8.10957H12.2234C12.4016 8.11111 12.6 8.11265 12.8141 8.11419C13.425 8.12188 14.0359 8.13573 14.6062 8.15728C15.7297 8.20037 16.5578 8.26808 16.8844 8.35426C17.2437 8.44968 17.5281 8.72976 17.625 9.08526C17.6984 9.35765 17.7578 9.76393 17.8 10.2595C17.8328 10.6396 17.8531 11.0489 17.8656 11.4583C17.8703 11.6014 17.8719 11.7353 17.8734 11.8538C17.8734 11.8954 17.875 11.9323 17.875 11.9631V12.0369Z" fill="#828282"/>
<path d="M11 14L14 11.9851L11 10V14Z" fill="#828282"/>
<path d="M11.9766 0C5.37207 0 0 5.38256 0 12C0 18.6174 5.37207 24 11.9766 24C18.5811 24 23.9532 18.6174 23.9532 12C23.9532 5.38256 18.5811 0 11.9766 0ZM11.9766 23.2007C5.81277 23.2007 0.797743 18.1759 0.797743 12C0.797743 5.82412 5.81277 0.799302 11.9766 0.799302C18.1404 0.799302 23.1555 5.82412 23.1555 12C23.1555 18.1759 18.1404 23.2007 11.9766 23.2007Z" fill="#828282"/>
</g>
<defs>
<clipPath id="clip0_381_321">
<rect width="24" height="24" fill="white"/>
</clipPath>
</defs>
</svg>
